<?xml version="1.0" encoding="UTF-8" standalone="no"?>
<svg
   xmlns:dc="http://purl.org/dc/elements/1.1/"
   xmlns:cc="http://creativecommons.org/ns#"
   xmlns:rdf="http://www.w3.org/1999/02/22-rdf-syntax-ns#"
   xmlns:svg="http://www.w3.org/2000/svg"
   xmlns="http://www.w3.org/2000/svg"
   xmlns:sodipodi="http://sodipodi.sourceforge.net/DTD/sodipodi-0.dtd"
   xmlns:inkscape="http://www.inkscape.org/namespaces/inkscape"
   inkscape:version="1.0 (1.0+r73+1)"
   viewBox="0 0 45 45"
   sodipodi:docname="Chess_klt80.svg"
   id="svg126"
   height="80"
   width="80"
   version="1.1">
  <metadata
     id="metadata132">
    <rdf:RDF>
      <cc:Work
         rdf:about="">
        <dc:format>image/svg+xml</dc:format>
        <dc:type
           rdf:resource="http://purl.org/dc/dcmitype/StillImage" />
        <dc:title></dc:title>
      </cc:Work>
    </rdf:RDF>
  </metadata>
  <defs
     id="defs130" />
  <sodipodi:namedview
     inkscape:current-layer="svg126"
     inkscape:window-maximized="1"
     inkscape:window-y="0"
     inkscape:window-x="1366"
     inkscape:cy="22.5"
     inkscape:cx="22.5"
     inkscape:zoom="19.111111"
     showgrid="false"
     id="namedview128"
     inkscape:window-height="1043"
     inkscape:window-width="1920"
     inkscape:pageshadow="2"
     inkscape:pageopacity="0"
     guidetolerance="10"
     gridtolerance="10"
     objecttolerance="10"
     borderopacity="1"
     bordercolor="#666666"
     pagecolor="#ffffff" />
  <g
     id="g124"
     style="fill:none;fill-opacity:1;fill-rule:evenodd;stroke:#000000;stroke-width:1.5;stroke-linecap:round;stroke-linejoin:round;stroke-miterlimit:4;stroke-dasharray:none;stroke-opacity:1">
    <path
       id="path110"
       style="fill:none;stroke:#000000;stroke-linejoin:miter"
       d="M 22.5,11.63 V 6" />
    <path
       id="path112"
       style="fill:none;stroke:#000000;stroke-linejoin:miter"
       d="m 20,8 h 5" />
    <path
       id="path114"
       style="fill:#ffffff;stroke:#000000;stroke-linecap:butt;stroke-linejoin:miter"
       d="m 22.5,25 c 0,0 4.5,-7.5 3,-10.5 0,0 -1,-2.5 -3,-2.5 -2,0 -3,2.5 -3,2.5 -1.5,3 3,10.5 3,10.5" />
    <path
       id="path116"
       style="fill:#ffffff;stroke:#000000"
       d="m 11.5,37 c 5.5,3.5 15.5,3.5 21,0 v -7 c 0,0 9,-4.5 6,-10.5 -4,-6.5 -13.5,-3.5 -16,4 V 27 23.5 C 19,16 9.5,13 6.5,19.5 c -3,6 5,10 5,10 z" />
    <path
       id="path118"
       style="fill:none;stroke:#000000"
       d="M 11.5,30 C 17,27 27,27 32.5,30" />
    <path
       id="path120"
       style="fill:none;stroke:#000000"
       d="m 11.5,33.5 c 5.5,-3 15.5,-3 21,0" />
    <path
       id="path122"
       style="fill:none;stroke:#000000"
       d="M 11.5,37 C 17,34 27,34 32.5,37" />
  </g>
</svg>
