<?xml version="1.0" encoding="UTF-8" standalone="no"?>
<svg
   xmlns:dc="http://purl.org/dc/elements/1.1/"
   xmlns:cc="http://creativecommons.org/ns#"
   xmlns:rdf="http://www.w3.org/1999/02/22-rdf-syntax-ns#"
   xmlns:svg="http://www.w3.org/2000/svg"
   xmlns="http://www.w3.org/2000/svg"
   xmlns:sodipodi="http://sodipodi.sourceforge.net/DTD/sodipodi-0.dtd"
   xmlns:inkscape="http://www.inkscape.org/namespaces/inkscape"
   inkscape:version="1.0 (1.0+r73+1)"
   viewBox="0 0 45 45"
   sodipodi:docname="Chess_qlt80.svg"
   id="svg378"
   height="80"
   width="80"
   version="1.1">
  <metadata
     id="metadata384">
    <rdf:RDF>
      <cc:Work
         rdf:about="">
        <dc:format>image/svg+xml</dc:format>
        <dc:type
           rdf:resource="http://purl.org/dc/dcmitype/StillImage" />
        <dc:title></dc:title>
      </cc:Work>
    </rdf:RDF>
  </metadata>
  <defs
     id="defs382" />
  <sodipodi:namedview
     inkscape:current-layer="svg378"
     inkscape:window-maximized="1"
     inkscape:window-y="0"
     inkscape:window-x="1366"
     inkscape:cy="22.5"
     inkscape:cx="22.5"
     inkscape:zoom="12.4"
     showgrid="false"
     id="namedview380"
     inkscape:window-height="1043"
     inkscape:window-width="1920"
     inkscape:pageshadow="2"
     inkscape:pageopacity="0"
     guidetolerance="10"
     gridtolerance="10"
     objecttolerance="10"
     borderopacity="1"
     bordercolor="#666666"
     pagecolor="#ffffff" />
  <g
     id="g376"
     style="opacity:1;fill:#ffffff;fill-opacity:1;fill-rule:evenodd;stroke:#000000;stroke-width:1.5;stroke-linecap:round;stroke-linejoin:round;stroke-miterlimit:4;stroke-dasharray:none;stroke-opacity:1">
    <path
       id="path358"
       transform="translate(-1,-1)"
       d="m 9,13 a 2,2 0 1 1 -4,0 2,2 0 1 1 4,0 z" />
    <path
       id="path360"
       transform="translate(15.5,-5.5)"
       d="m 9,13 a 2,2 0 1 1 -4,0 2,2 0 1 1 4,0 z" />
    <path
       id="path362"
       transform="translate(32,-1)"
       d="m 9,13 a 2,2 0 1 1 -4,0 2,2 0 1 1 4,0 z" />
    <path
       id="path364"
       transform="translate(7,-4.5)"
       d="m 9,13 a 2,2 0 1 1 -4,0 2,2 0 1 1 4,0 z" />
    <path
       id="path366"
       transform="translate(24,-4)"
       d="m 9,13 a 2,2 0 1 1 -4,0 2,2 0 1 1 4,0 z" />
    <path
       id="path368"
       style="stroke-linecap:butt"
       d="m 9,26 c 8.5,-1.5 21,-1.5 27,0 L 38,14 31,25 V 11 l -5.5,13.5 -3,-15 -3,15 -5.5,-14 V 25 L 7,14 Z" />
    <path
       id="path370"
       style="stroke-linecap:butt"
       d="m 9,26 c 0,2 1.5,2 2.5,4 1,1.5 1,1 0.5,3.5 -1.5,1 -1.5,2.5 -1.5,2.5 -1.5,1.5 0.5,2.5 0.5,2.5 6.5,1 16.5,1 23,0 0,0 1.5,-1 0,-2.5 0,0 0.5,-1.5 -1,-2.5 -0.5,-2.5 -0.5,-2 0.5,-3.5 1,-2 2.5,-2 2.5,-4 -8.5,-1.5 -18.5,-1.5 -27,0 z" />
    <path
       id="path372"
       style="fill:none"
       d="M 11.5,30 C 15,29 30,29 33.5,30" />
    <path
       id="path374"
       style="fill:none"
       d="m 12,33.5 c 6,-1 15,-1 21,0" />
  </g>
</svg>
